<mxfile host="app.diagrams.net" modified="2023-06-05T14:46:58.713Z" agent="Mozilla/5.0 (Windows NT 10.0; Win64; x64) AppleWebKit/537.36 (KHTML, like Gecko) Chrome/112.0.0.0 YaBrowser/23.5.1.714 Yowser/2.5 Safari/537.36" etag="vwfhA3P4iHL2W8kN3uH8" version="21.3.7" type="device">
  <diagram name="Страница 1" id="9V0lb9XhVHu_paLWSGwG">
    <mxGraphModel dx="1109" dy="644" grid="1" gridSize="10" guides="1" tooltips="1" connect="1" arrows="1" fold="1" page="1" pageScale="1" pageWidth="827" pageHeight="1169" math="0" shadow="0">
      <root>
        <mxCell id="0" />
        <mxCell id="1" parent="0" />
        <mxCell id="FlaVZ0qUme7fTm61ZKex-14" value="" style="group" vertex="1" connectable="0" parent="1">
          <mxGeometry x="310" y="120" width="130" height="150" as="geometry" />
        </mxCell>
        <mxCell id="FlaVZ0qUme7fTm61ZKex-3" value="Название(текст)" style="rounded=0;whiteSpace=wrap;html=1;container=0;" vertex="1" parent="FlaVZ0qUme7fTm61ZKex-14">
          <mxGeometry y="50" width="130" height="20" as="geometry" />
        </mxCell>
        <mxCell id="FlaVZ0qUme7fTm61ZKex-4" value="Описание(текст)" style="rounded=0;whiteSpace=wrap;html=1;container=0;" vertex="1" parent="FlaVZ0qUme7fTm61ZKex-14">
          <mxGeometry y="70" width="130" height="20" as="geometry" />
        </mxCell>
        <mxCell id="FlaVZ0qUme7fTm61ZKex-5" value="Кол-во на складе&lt;br&gt;(числовой)" style="rounded=0;whiteSpace=wrap;html=1;container=0;" vertex="1" parent="FlaVZ0qUme7fTm61ZKex-14">
          <mxGeometry y="90" width="130" height="40" as="geometry" />
        </mxCell>
        <mxCell id="FlaVZ0qUme7fTm61ZKex-6" value="Цена(числовой)" style="rounded=0;whiteSpace=wrap;html=1;container=0;" vertex="1" parent="FlaVZ0qUme7fTm61ZKex-14">
          <mxGeometry y="130" width="130" height="20" as="geometry" />
        </mxCell>
        <mxCell id="FlaVZ0qUme7fTm61ZKex-10" value="Название(текст)" style="rounded=0;whiteSpace=wrap;html=1;container=0;" vertex="1" parent="FlaVZ0qUme7fTm61ZKex-14">
          <mxGeometry y="50" width="130" height="20" as="geometry" />
        </mxCell>
        <mxCell id="FlaVZ0qUme7fTm61ZKex-11" value="Описание(текст)" style="rounded=0;whiteSpace=wrap;html=1;container=0;" vertex="1" parent="FlaVZ0qUme7fTm61ZKex-14">
          <mxGeometry y="70" width="130" height="20" as="geometry" />
        </mxCell>
        <mxCell id="FlaVZ0qUme7fTm61ZKex-12" value="Кол-во на складе&lt;br&gt;(числовой)" style="rounded=0;whiteSpace=wrap;html=1;container=0;" vertex="1" parent="FlaVZ0qUme7fTm61ZKex-14">
          <mxGeometry y="90" width="130" height="40" as="geometry" />
        </mxCell>
        <mxCell id="FlaVZ0qUme7fTm61ZKex-13" value="Цена(числовой)" style="rounded=0;whiteSpace=wrap;html=1;container=0;" vertex="1" parent="FlaVZ0qUme7fTm61ZKex-14">
          <mxGeometry y="130" width="130" height="20" as="geometry" />
        </mxCell>
        <mxCell id="FlaVZ0qUme7fTm61ZKex-1" value="Товар" style="rounded=0;whiteSpace=wrap;html=1;container=0;" vertex="1" parent="FlaVZ0qUme7fTm61ZKex-14">
          <mxGeometry width="130" height="50" as="geometry" />
        </mxCell>
      </root>
    </mxGraphModel>
  </diagram>
</mxfile>
